HIERARCHY
ROOT hip
{
  OFFSET 0.0 0.0 0.0
  CHANNELS 6 Xposition Yposition Zposition Zrotation Yrotation Xrotation
  JOINT abdomen
  {
    OFFSET 0.0 20.6881 -0.73152
    CHANNELS 3 Zrotation Xrotation Yrotation
    JOINT chest
    {
      OFFSET 0.0 11.7043 -0.48768
      CHANNELS 3 Zrotation Xrotation Yrotation
      JOINT neck
      {
        OFFSET 0.0 22.1894 -2.19456
        CHANNELS 3 Zrotation Xrotation Yrotation
        JOINT head
        {
          OFFSET -0.24384 7.07133 1.2192
          CHANNELS 3 Zrotation Xrotation Yrotation
          JOINT leftEye
          {
            OFFSET 4.14528 8.04674 8.04672
            CHANNELS 3 Zrotation Xrotation Yrotation
            End Site
            {
              OFFSET 1.0 0.0 0.0
            }
          }
          JOINT rightEye
          {
            OFFSET -3.6576 8.04674 8.04672
            CHANNELS 3 Zrotation Xrotation Yrotation
            End Site
            {
              OFFSET 1.0 0.0 0.0
            }
          }
        }
      }
      JOINT rCollar
      {
        OFFSET -2.68224 19.2634 -4.8768
        CHANNELS 3 Zrotation Xrotation Yrotation
        JOINT rShldr
        {
          OFFSET -8.77824 -1.95073 1.46304
          CHANNELS 3 Zrotation Xrotation Yrotation
          JOINT rForeArm
          {
            OFFSET -28.1742 -1.7115 0.48768
            CHANNELS 3 Zrotation Xrotation Yrotation
            JOINT rHand
            {
              OFFSET -22.5879 0.773209 7.07136
              CHANNELS 3 Zrotation Xrotation Yrotation
              JOINT rThumb1
              {
                OFFSET -1.2192 -0.487915 3.41376
                CHANNELS 3 Zrotation Xrotation Yrotation
                JOINT rThumb2
                {
                  OFFSET -3.37035 -0.52449 3.41376
                  CHANNELS 3 Zrotation Xrotation Yrotation
                  End Site
                  {
                    OFFSET -1.78271 -1.18214 1.43049
                  }
                }
              }
              JOINT rIndex1
              {
                OFFSET -7.75947 0.938293 5.60832
                CHANNELS 3 Zrotation Xrotation Yrotation
                JOINT rIndex2
                {
                  OFFSET -2.54057 -0.884171 1.56538
                  CHANNELS 3 Zrotation Xrotation Yrotation
                  End Site
                  {
                    OFFSET -1.62519 -0.234802 1.16502
                  }
                }
              }
              JOINT rMid1
              {
                OFFSET -8.24714 1.18213 3.41376
                CHANNELS 3 Zrotation Xrotation Yrotation
                JOINT rMid2
                {
                  OFFSET -3.10165 -0.590103 1.0647
                  CHANNELS 3 Zrotation Xrotation Yrotation
                  End Site
                  {
                    OFFSET -2.48547 -0.328903 0.83742
                  }
                }
              }
              JOINT rRing1
              {
                OFFSET -8.82822 0.546677 1.51678
                CHANNELS 3 Zrotation Xrotation Yrotation
                JOINT rRing2
                {
                  OFFSET -2.60934 -0.819778 -0.0198488
                  CHANNELS 3 Zrotation Xrotation Yrotation
                  End Site
                  {
                    OFFSET -2.33842 -0.294052 0.168128
                  }
                }
              }
              JOINT rPinky1
              {
                OFFSET -8.27202 -0.0477905 -0.4584
                CHANNELS 3 Zrotation Xrotation Yrotation
                JOINT rPinky2
                {
                  OFFSET -1.82734 -0.647385 -0.700984
                  CHANNELS 3 Zrotation Xrotation Yrotation
                  End Site
                  {
                    OFFSET -1.69225 -0.51767 -0.607171
                  }
                }
              }
            }
          }
        }
      }
      JOINT lCollar
      {
        OFFSET 2.68224 19.2634 -4.8768
        CHANNELS 3 Zrotation Xrotation Yrotation
        JOINT lShldr
        {
          OFFSET 8.77824 -1.95073 1.46304
          CHANNELS 3 Zrotation Xrotation Yrotation
          JOINT lForeArm
          {
            OFFSET 28.1742 -1.7115 0.48768
            CHANNELS 3 Zrotation Xrotation Yrotation
            JOINT lHand
            {
              OFFSET 22.5879 0.773209 7.07136
              CHANNELS 3 Zrotation Xrotation Yrotation
              JOINT lThumb1
              {
                OFFSET 1.2192 -0.487915 3.41376
                CHANNELS 3 Zrotation Xrotation Yrotation
                JOINT lThumb2
                {
                  OFFSET 3.37035 -0.52449 3.41376
                  CHANNELS 3 Zrotation Xrotation Yrotation
                  End Site
                  {
                    OFFSET 1.78271 -1.18214 1.43049
                  }
                }
              }
              JOINT lIndex1
              {
                OFFSET 7.75947 0.938293 5.60832
                CHANNELS 3 Zrotation Xrotation Yrotation
                JOINT lIndex2
                {
                  OFFSET 2.54057 -0.884171 1.56538
                  CHANNELS 3 Zrotation Xrotation Yrotation
                  End Site
                  {
                    OFFSET 1.62519 -0.234802 1.16502
                  }
                }
              }
              JOINT lMid1
              {
                OFFSET 8.24714 1.18213 3.41376
                CHANNELS 3 Zrotation Xrotation Yrotation
                JOINT lMid2
                {
                  OFFSET 3.10165 -0.590103 1.0647
                  CHANNELS 3 Zrotation Xrotation Yrotation
                  End Site
                  {
                    OFFSET 2.48547 -0.328903 0.83742
                  }
                }
              }
              JOINT lRing1
              {
                OFFSET 8.82822 0.546677 1.51678
                CHANNELS 3 Zrotation Xrotation Yrotation
                JOINT lRing2
                {
                  OFFSET 2.60934 -0.819778 -0.0198488
                  CHANNELS 3 Zrotation Xrotation Yrotation
                  End Site
                  {
                    OFFSET 2.33842 -0.294052 0.168128
                  }
                }
              }
              JOINT lPinky1
              {
                OFFSET 8.27202 -0.0477905 -0.4584
                CHANNELS 3 Zrotation Xrotation Yrotation
                JOINT lPinky2
                {
                  OFFSET 1.82734 -0.647385 -0.700984
                  CHANNELS 3 Zrotation Xrotation Yrotation
                  End Site
                  {
                    OFFSET 1.69225 -0.51767 -0.607171
                  }
                }
              }
            }
          }
        }
      }
    }
  }
  JOINT rButtock
  {
    OFFSET -8.77824 4.35084 1.2192
    CHANNELS 3 Zrotation Xrotation Yrotation
    JOINT rThigh
    {
      OFFSET 0.0 -1.70687 -2.19456
      CHANNELS 3 Zrotation Xrotation Yrotation
      JOINT rShin
      {
        OFFSET 0.0 -36.8199 0.73152
        CHANNELS 3 Zrotation Xrotation Yrotation
        JOINT rFoot
        {
          OFFSET 0.73152 -45.1104 -5.12064
          CHANNELS 3 Zrotation Xrotation Yrotation
          End Site
          {
            OFFSET -1.1221 -3.69964 12.103
          }
        }
      }
    }
  }
  JOINT lButtock
  {
    OFFSET 8.77824 4.35084 1.2192
    CHANNELS 3 Zrotation Xrotation Yrotation
    JOINT lThigh
    {
      OFFSET 0.0 -1.70687 -2.19456
      CHANNELS 3 Zrotation Xrotation Yrotation
      JOINT lShin
      {
        OFFSET 0.0 -36.8199 0.73152
        CHANNELS 3 Zrotation Xrotation Yrotation
        JOINT lFoot
        {
          OFFSET -0.73152 -45.1104 -5.12064
          CHANNELS 3 Zrotation Xrotation Yrotation
          End Site
          {
            OFFSET 1.1221 -3.69964 12.103
          }
        }
      }
    }
  }
}
MOTION
Frames: 5
Frame Time: 0.00833333
26.4404 83.0669 -83.5247 -0.335 5.3342 12.4063 -3.48773 12.5204 -3.79822 0.0327567 -2.52125 -1.15589 1.66782 7.8351 -0.771099 2.07523 -33.0521 -1.21465 -0.0 0.0 0.0 -0.0 0.0 0.0 -2.71589e-14 -1.68569e-13 -3.34952e-14 91.1016 27.9025 -23.0148 -17.0938 -9.74449 32.0174 -0.361433 16.8511 2.43973 -1.48169e-09 1.53668e-10 9.8754e-10 -2.54981e-09 2.6662e-10 1.73511e-09 -1.48169e-09 1.53672e-10 9.8753e-10 7.73091 5.47488 0.417314 -1.48169e-09 1.53673e-10 9.8754e-10 2.90554 0.965183 0.102902 -1.48169e-09 1.53675e-10 9.87541e-10 10.2786 0.731801 0.0259123 -1.48169e-09 1.53677e-10 9.87553e-10 2.22167 -0.733487 -0.20892 -2.73099e-14 -1.68571e-13 -3.3694e-14 -46.0239 33.0731 -18.3471 27.5126 -42.4628 -88.4605 3.7798 -47.022 8.67491 3.0886e-09 1.41079e-08 2.31609e-09 5.24043e-09 2.6056e-08 4.09898e-09 3.08859e-09 1.41079e-08 2.3161e-09 -7.73091 5.47488 -0.417314 3.0886e-09 1.41079e-08 2.31609e-09 -2.90554 0.965183 -0.102902 3.0886e-09 1.41079e-08 2.31609e-09 -10.2786 0.731801 -0.0259123 3.08861e-09 1.41079e-08 2.31608e-09 -2.22167 -0.733487 0.20892 -2.03217e-16 0.0 -3.88251e-19 -38.5404 -73.4233 -40.1853 -175.666 70.5349 175.904 -0.728781 14.5735 3.10642 2.03217e-16 0.0 3.88251e-19 4.0107 -34.7948 24.89 0.284186 36.6098 -0.399922 -6.07862 -10.389 -23.8852
26.6265 83.067 -82.509 -0.0594 5.6344 12.3804 -3.43535 12.3673 -4.04907 0.0117434 -2.43392 -1.21889 1.73112 7.89812 -0.80315 1.80111 -32.9024 -1.37007 -0.0 0.0 0.0 -0.0 0.0 0.0 9.65416e-16 -7.35265e-14 -5.36163e-14 91.534 28.2033 -24.0675 -17.6148 -10.2866 33.139 -0.325865 16.0663 2.31916 -1.13515e-09 1.16959e-10 4.7569e-10 -1.95622e-09 2.02814e-10 8.42905e-10 -1.13515e-09 1.16964e-10 4.75679e-10 7.73091 5.47488 0.417314 -1.13516e-09 1.16965e-10 4.75689e-10 2.90554 0.965183 0.102902 -1.13515e-09 1.16966e-10 4.7569e-10 10.2786 0.731801 0.0259123 -1.13515e-09 1.16968e-10 4.75701e-10 2.22167 -0.733487 -0.20892 7.94192e-16 -7.35258e-14 -5.37957e-14 -46.1001 31.1777 -19.045 27.5407 -42.3543 -88.2661 4.30345 -49.2247 9.37738 2.51183e-09 8.55483e-09 1.64742e-09 4.26803e-09 1.61369e-08 2.9299e-09 2.51182e-09 8.55483e-09 1.64743e-09 -7.73091 5.47488 -0.417314 2.51183e-09 8.55482e-09 1.64743e-09 -2.90554 0.965183 -0.102902 2.51182e-09 8.55482e-09 1.64743e-09 -10.2786 0.731801 -0.0259123 2.51183e-09 8.55483e-09 1.64742e-09 -2.22167 -0.733487 0.20892 -2.03217e-16 0.0 -3.88251e-19 -38.2035 -74.1518 -39.7825 -175.417 71.9244 175.634 -0.717306 13.8801 3.02423 2.03217e-16 0.0 3.88251e-19 3.09139 -33.759 23.8244 0.266446 35.9391 -0.413862 -6.17895 -10.9256 -23.646
26.8262 83.2301 -81.4904 0.1848 5.9413 12.3535 -3.34166 12.1791 -4.27131 -0.0298549 -2.32892 -1.27268 1.79952 7.96369 -0.844388 1.52163 -32.7191 -1.54603 -0.0 0.0 0.0 -0.0 0.0 0.0 4.17094e-14 4.47241e-14 -8.56793e-14 91.9961 28.3614 -25.157 -18.172 -10.8839 34.3771 -0.282535 14.9754 2.15396 -7.01588e-10 4.13188e-11 -1.99644e-10 -1.21349e-09 7.19064e-11 -3.34525e-10 -7.01589e-10 4.13246e-11 -1.99655e-10 7.73091 5.47488 0.417314 -7.01594e-10 4.13249e-11 -1.99645e-10 2.90554 0.965183 0.102902 -7.01582e-10 4.13262e-11 -1.99645e-10 10.2786 0.731801 0.0259123 -7.01591e-10 4.13281e-11 -1.99634e-10 2.22167 -0.733487 -0.20892 4.1522e-14 4.47274e-14 -8.58408e-14 -46.3488 29.2495 -19.7899 27.6013 -42.1127 -87.8338 4.87691 -51.3778 10.1256 1.67569e-09 3.09213e-09 8.65728e-10 2.85554e-09 6.09693e-09 1.55731e-09 1.67568e-09 3.09213e-09 8.65732e-10 -7.73091 5.47488 -0.417314 1.67569e-09 3.09212e-09 8.65731e-10 -2.90554 0.965183 -0.102902 1.67568e-09 3.09213e-09 8.6573e-10 -10.2786 0.731801 -0.0259123 1.6757e-09 3.09213e-09 8.65721e-10 -2.22167 -0.733487 0.20892 -2.03217e-16 0.0 -3.88251e-19 -37.4068 -74.7428 -38.9435 -175.079 73.5313 175.276 -0.711702 13.2682 2.85367 2.03217e-16 0.0 3.88251e-19 2.21103 -32.7648 22.6732 0.250589 35.3497 -0.430409 -6.26726 -11.5563 -23.267
27.0275 83.3623 -80.4608 0.4088 6.2638 12.3228 -3.2284 11.9621 -4.47647 -0.0830876 -2.21038 -1.32121 1.86846 8.04757 -0.88947 1.25481 -32.532 -1.72461 -0.0 0.0 0.0 -0.0 0.0 0.0 7.9681e-14 1.589e-13 -1.00596e-13 92.4299 28.3497 -26.2022 -18.7143 -11.483 35.625 -0.236363 13.6906 1.96187 -2.79317e-10 -7.52516e-12 -7.89288e-10 -4.89493e-10 -1.25792e-11 -1.36362e-09 -2.79316e-10 -7.51875e-12 -7.89298e-10 7.73091 5.47488 0.417314 -2.79322e-10 -7.51922e-12 -7.89288e-10 2.90554 0.965183 0.102902 -2.7931e-10 -7.51828e-12 -7.8929e-10 10.2786 0.731801 0.0259123 -2.79322e-10 -7.51649e-12 -7.8928e-10 2.22167 -0.733487 -0.20892 7.9487e-14 1.58906e-13 -1.00745e-13 -46.7436 27.3356 -20.5602 27.6897 -41.7705 -87.1978 5.46747 -53.3294 10.8728 7.02084e-10 -4.22109e-11 1.20487e-10 1.20675e-09 4.69055e-11 2.40894e-10 7.02076e-10 -4.22058e-11 1.20491e-10 -7.73091 5.47488 -0.417314 7.02084e-10 -4.22148e-11 1.20493e-10 -2.90554 0.965183 -0.102902 7.02074e-10 -4.22039e-11 1.2049e-10 -10.2786 0.731801 -0.0259123 7.0209e-10 -4.22118e-11 1.2048e-10 -2.22167 -0.733487 0.20892 -2.03217e-16 0.0 -3.88251e-19 -36.2117 -75.1686 -37.7275 -174.605 75.3521 174.787 -0.707556 12.6717 2.58976 2.03217e-16 0.0 3.88251e-19 1.3632 -31.78 21.4907 0.235925 34.8094 -0.448947 -6.3413 -12.2604 -22.7794
27.2298 83.4651 -79.4183 0.6136 6.5944 12.2862 -3.11733 11.7228 -4.67612 -0.138996 -2.08242 -1.36842 1.93344 8.16553 -0.93306 1.01799 -32.3713 -1.88824 -0.0 0.0 0.0 -0.0 0.0 0.0 9.94884e-14 2.41718e-13 -6.92765e-14 92.7749 28.1452 -27.1217 -19.2007 -12.0387 36.7734 -0.189993 12.3244 1.75958 3.33491e-11 3.61534e-11 -1.04407e-09 4.78805e-11 6.28827e-11 -1.81081e-09 3.33509e-11 3.61597e-11 -1.04408e-09 7.73091 5.47488 0.417314 3.33447e-11 3.61588e-11 -1.04407e-09 2.90554 0.965183 0.102902 3.33573e-11 3.61595e-11 -1.04407e-09 10.2786 0.731801 0.0259123 3.33422e-11 3.61613e-11 -1.04406e-09 2.22167 -0.733487 -0.20892 9.93027e-14 2.41725e-13 -6.94255e-14 -47.2521 25.4822 -21.3351 27.8004 -41.3586 -86.3926 6.01725 -54.9293 11.5479 -2.87116e-10 1.38979e-09 -4.38808e-10 -4.74529e-10 2.09766e-09 -7.5965e-10 -2.87123e-10 1.38979e-09 -4.38805e-10 -7.73091 5.47488 -0.417314 -2.87117e-10 1.38978e-09 -4.38802e-10 -2.90554 0.965183 -0.102902 -2.87128e-10 1.3898e-09 -4.38805e-10 -10.2786 0.731801 -0.0259123 -2.8711e-10 1.38978e-09 -4.38815e-10 -2.22167 -0.733487 0.20892 -2.03217e-16 0.0 -3.88251e-19 -34.7207 -75.4012 -36.2345 -173.912 77.3828 174.083 -0.701555 12.0242 2.22788 2.03217e-16 0.0 3.88251e-19 0.539155 -30.7755 20.3309 0.221762 34.2857 -0.468865 -6.40003 -13.0168 -22.2142
